<svg id="visual" viewBox="0 0 960 540" width="960" height="540" xmlns="http://www.w3.org/2000/svg" xmlns:xlink="http://www.w3.org/1999/xlink" version="1.1"><rect x="0" y="0" width="960" height="540" fill="#001220"></rect><defs><linearGradient id="grad1_0" x1="43.8%" y1="0%" x2="100%" y2="100%"><stop offset="14.444444444444446%" stop-color="#f7aff7" stop-opacity="1"></stop><stop offset="85.55555555555554%" stop-color="#f7aff7" stop-opacity="1"></stop></linearGradient></defs><defs><linearGradient id="grad1_1" x1="43.8%" y1="0%" x2="100%" y2="100%"><stop offset="14.444444444444446%" stop-color="#f7aff7" stop-opacity="1"></stop><stop offset="85.55555555555554%" stop-color="#a688c6" stop-opacity="1"></stop></linearGradient></defs><defs><linearGradient id="grad1_2" x1="43.8%" y1="0%" x2="100%" y2="100%"><stop offset="14.444444444444446%" stop-color="#61608f" stop-opacity="1"></stop><stop offset="85.55555555555554%" stop-color="#a688c6" stop-opacity="1"></stop></linearGradient></defs><defs><linearGradient id="grad1_3" x1="43.8%" y1="0%" x2="100%" y2="100%"><stop offset="14.444444444444446%" stop-color="#61608f" stop-opacity="1"></stop><stop offset="85.55555555555554%" stop-color="#293856" stop-opacity="1"></stop></linearGradient></defs><defs><linearGradient id="grad1_4" x1="43.8%" y1="0%" x2="100%" y2="100%"><stop offset="14.444444444444446%" stop-color="#001220" stop-opacity="1"></stop><stop offset="85.55555555555554%" stop-color="#293856" stop-opacity="1"></stop></linearGradient></defs><defs><linearGradient id="grad2_0" x1="0%" y1="0%" x2="56.3%" y2="100%"><stop offset="14.444444444444446%" stop-color="#f7aff7" stop-opacity="1"></stop><stop offset="85.55555555555554%" stop-color="#f7aff7" stop-opacity="1"></stop></linearGradient></defs><defs><linearGradient id="grad2_1" x1="0%" y1="0%" x2="56.3%" y2="100%"><stop offset="14.444444444444446%" stop-color="#a688c6" stop-opacity="1"></stop><stop offset="85.55555555555554%" stop-color="#f7aff7" stop-opacity="1"></stop></linearGradient></defs><defs><linearGradient id="grad2_2" x1="0%" y1="0%" x2="56.3%" y2="100%"><stop offset="14.444444444444446%" stop-color="#a688c6" stop-opacity="1"></stop><stop offset="85.55555555555554%" stop-color="#61608f" stop-opacity="1"></stop></linearGradient></defs><defs><linearGradient id="grad2_3" x1="0%" y1="0%" x2="56.3%" y2="100%"><stop offset="14.444444444444446%" stop-color="#293856" stop-opacity="1"></stop><stop offset="85.55555555555554%" stop-color="#61608f" stop-opacity="1"></stop></linearGradient></defs><defs><linearGradient id="grad2_4" x1="0%" y1="0%" x2="56.3%" y2="100%"><stop offset="14.444444444444446%" stop-color="#293856" stop-opacity="1"></stop><stop offset="85.55555555555554%" stop-color="#001220" stop-opacity="1"></stop></linearGradient></defs><g transform="translate(960, 0)"><path d="M0 378C-51.6 375.8 -103.2 373.7 -144.7 349.2C-186.1 324.8 -217.4 278 -235.5 235.5C-253.5 192.9 -258.4 154.5 -279.9 116C-301.5 77.4 -339.7 38.7 -378 0L0 0Z" fill="#13253a"></path><path d="M0 302.4C-41.3 300.7 -82.6 298.9 -115.7 279.4C-148.9 259.8 -173.9 222.4 -188.4 188.4C-202.8 154.3 -206.7 123.6 -223.9 92.8C-241.2 61.9 -271.8 31 -302.4 0L0 0Z" fill="#434c72"></path><path d="M0 226.8C-31 225.5 -61.9 224.2 -86.8 209.5C-111.7 194.9 -130.4 166.8 -141.3 141.3C-152.1 115.7 -155 92.7 -168 69.6C-180.9 46.4 -203.8 23.2 -226.8 0L0 0Z" fill="#8274ab"></path><path d="M0 151.2C-20.6 150.3 -41.3 149.5 -57.9 139.7C-74.4 129.9 -87 111.2 -94.2 94.2C-101.4 77.2 -103.4 61.8 -112 46.4C-120.6 31 -135.9 15.5 -151.2 0L0 0Z" fill="#ce9be0"></path><path d="M0 75.6C-10.3 75.2 -20.6 74.7 -28.9 69.8C-37.2 65 -43.5 55.6 -47.1 47.1C-50.7 38.6 -51.7 30.9 -56 23.2C-60.3 15.5 -67.9 7.7 -75.6 0L0 0Z" fill="#f7aff7"></path></g><g transform="translate(0, 540)"><path d="M0 -378C49.8 -373.5 99.5 -369.1 144.7 -349.2C189.8 -329.4 230.2 -294.1 253.9 -253.9C277.5 -213.6 284.2 -168.3 302.1 -125.1C320 -82 349 -41 378 0L0 0Z" fill="#13253a"></path><path d="M0 -302.4C39.8 -298.8 79.6 -295.3 115.7 -279.4C151.8 -263.5 184.2 -235.3 203.1 -203.1C222 -170.9 227.4 -134.6 241.7 -100.1C256 -65.6 279.2 -32.8 302.4 0L0 0Z" fill="#434c72"></path><path d="M0 -226.8C29.9 -224.1 59.7 -221.4 86.8 -209.5C113.9 -197.6 138.1 -176.5 152.3 -152.3C166.5 -128.1 170.5 -101 181.3 -75.1C192 -49.2 209.4 -24.6 226.8 0L0 0Z" fill="#8274ab"></path><path d="M0 -151.2C19.9 -149.4 39.8 -147.6 57.9 -139.7C75.9 -131.7 92.1 -117.6 101.5 -101.5C111 -85.4 113.7 -67.3 120.8 -50.1C128 -32.8 139.6 -16.4 151.2 0L0 0Z" fill="#ce9be0"></path><path d="M0 -75.6C10 -74.7 19.9 -73.8 28.9 -69.8C38 -65.9 46 -58.8 50.8 -50.8C55.5 -42.7 56.8 -33.7 60.4 -25C64 -16.4 69.8 -8.2 75.6 0L0 0Z" fill="#f7aff7"></path></g></svg>